<?xml version="1.0" encoding="utf-8"?>
<!DOCTYPE svg PUBLIC "-//W3C//DTD SVG 1.0//EN" "http://www.w3.org/TR/2001/REC-SVG-20010904/DTD/svg10.dtd">
<svg aria-labelledby="title desc" fill-rule="evenodd" height="2.0868055555555554in" preserveAspectRatio="none" stroke-linecap="round" viewBox="0 0 429 601" width="1.4895833333333333in" xmlns="http://www.w3.org/2000/svg" xmlns:xlink="http://www.w3.org/1999/xlink"><title>choices,confused,confusion,decision making,decisions,emoticons,emotions,expressions,faces,question marks,questions,smiley,smiley face,smiley faces,smileys,smilie,smilie face,smilie faces,smilies,smily,smily face,smily faces,symbols</title><desc>Original keywords: choices,confused,confusion,decision making,decisions,emoticons,emotions,expressions,faces,question marks,questions,smiley,smiley face,smiley faces,smileys,smilie,smilie face,smilie faces,smilies,smily,smily face,smily faces,symbols. This clipart was ripped from the Microsoft website, then uploaded to https://archive.org/details/MS_Clipart_Collection. (The original WMF file can be found within that item, under the folder MC900434403). From there, it was then converted by Trumad to svg using https://github.com/hidekatsu-izuno/wmf2svg in a bulk operation. All the converted files can be found at https://archive.org/details/MS_Clipart_Collection_SVG</desc>
<style type="text/css">
.brush0 { fill: rgb(255,255,255); }
.pen0 { stroke: rgb(0,0,0); stroke-width: 1; stroke-linejoin: round; }
.brush1 { fill: rgb(255,255,0); }
.pen1 { stroke: none; }
.brush2 { fill: rgb(255,250,0); }
.brush3 { fill: rgb(255,242,0); }
.brush4 { fill: rgb(255,237,0); }
.brush5 { fill: rgb(255,232,0); }
.brush6 { fill: rgb(255,227,0); }
.brush7 { fill: rgb(255,222,0); }
.brush8 { fill: rgb(255,217,0); }
.brush9 { fill: rgb(255,209,0); }
.brush10 { fill: rgb(255,204,0); }
.brush11 { fill: rgb(255,199,0); }
.brush12 { fill: rgb(255,194,0); }
.brush13 { fill: rgb(255,189,0); }
.brush14 { fill: rgb(255,181,0); }
.brush15 { fill: rgb(255,176,0); }
.brush16 { fill: rgb(255,171,0); }
.brush17 { fill: rgb(255,115,0); }
.brush18 { fill: rgb(255,207,0); }
.brush19 { fill: rgb(255,214,0); }
.brush20 { fill: rgb(255,219,0); }
.brush21 { fill: rgb(255,230,0); }
.brush22 { fill: rgb(255,235,0); }
.brush23 { fill: rgb(255,240,0); }
.brush24 { fill: rgb(255,245,0); }
.brush25 { fill: rgb(255,247,0); }
.brush26 { fill: rgb(230,230,230); }
.brush27 { fill: rgb(255,166,0); }
.brush28 { fill: rgb(250,97,6); }
.brush29 { fill: rgb(54,144,192); }
.brush30 { fill: rgb(103,198,221); }
.brush31 { fill: rgb(0,0,0); }
.brush32 { fill: rgb(255,244,0); }
.brush33 { fill: rgb(255,234,0); }
.brush34 { fill: rgb(255,231,0); }
.brush35 { fill: rgb(255,228,0); }
.brush36 { fill: rgb(255,225,0); }
.brush37 { fill: rgb(255,215,0); }
.brush38 { fill: rgb(255,212,0); }
.brush39 { fill: rgb(130,206,226); }
.brush40 { fill: rgb(225,0,0); }
</style>
<g>
<path class="pen1 brush1" d="M 203,175  L 203,175 183,176 164,179 145,184 127,191 109,200 93,211 78,223 64,236 51,251 40,267 30,284 21,303 15,322 10,342 7,362 6,384 6,384 7,405 10,426 15,445 21,465 30,483 40,500 51,516 64,531 78,544 93,556 109,567 127,576 145,583 164,588 183,591 203,592 203,592 224,591 243,588 262,583 280,576 297,567 314,556 329,544 343,531 356,516 367,500 377,483 385,465 392,445 397,426 400,405 401,384 401,384 400,362 397,342 392,322 385,303 377,284 367,267 356,251 343,236 329,223 314,211 297,200 280,191 262,184 243,179 224,176 203,175 203,175 z" fill-rule="nonzero"/>
<path class="pen1 brush2" d="M 204,173  L 204,173 184,174 164,178 145,183 127,190 110,199 93,209 78,221 64,235 51,250 40,266 30,283 21,302 14,321 10,341 7,362 6,383 6,383 7,404 10,425 14,445 21,464 30,483 40,500 51,516 64,531 78,545 93,557 110,567 127,576 145,583 164,588 184,592 204,593 204,593 224,592 244,588 263,583 281,576 299,567 315,557 330,545 344,531 357,516 369,500 379,483 387,464 394,445 399,425 402,404 403,383 403,383 402,362 399,341 394,321 387,302 379,283 369,266 357,250 344,235 330,221 315,209 299,199 281,190 263,183 244,178 224,174 204,173 204,173 z" fill-rule="nonzero"/>
<path class="pen1 brush3" d="M 205,172  L 205,172 184,173 165,176 146,181 127,188 110,197 93,208 78,220 64,234 51,249 39,265 29,282 21,301 14,320 9,340 6,361 5,382 5,382 6,404 9,425 14,445 21,464 29,483 39,500 51,516 64,531 78,545 93,557 110,568 127,576 146,584 165,589 184,592 205,593 205,593 225,592 245,589 264,584 282,576 300,568 316,557 332,545 346,531 359,516 370,500 380,483 389,464 395,445 400,425 403,404 404,382 404,382 403,361 400,340 395,320 389,301 380,282 370,265 359,249 346,234 332,220 316,208 300,197 282,188 264,181 245,176 225,173 205,172 205,172 z" fill-rule="nonzero"/>
<path class="pen1 brush4" d="M 205,170  L 205,170 185,171 165,175 146,180 128,187 110,196 94,206 78,219 64,232 51,247 39,264 29,281 21,300 14,319 9,339 6,360 5,382 5,382 6,403 9,424 14,445 21,464 29,483 39,500 51,516 64,531 78,545 94,557 110,568 128,577 146,584 165,589 185,592 205,593 205,593 226,592 246,589 265,584 283,577 301,568 317,557 333,545 347,531 360,516 372,500 382,483 390,464 397,445 402,424 405,403 406,382 406,382 405,360 402,339 397,319 390,300 382,281 372,264 360,247 347,232 333,219 317,206 301,196 283,187 265,180 246,175 226,171 205,170 205,170 z" fill-rule="nonzero"/>
<path class="pen1 brush5" d="M 206,169  L 206,169 186,170 166,173 146,178 128,185 110,194 94,205 78,217 64,231 51,246 39,262 29,280 21,299 14,318 9,338 6,360 5,381 5,381 6,403 9,424 14,444 21,464 29,482 39,500 51,516 64,531 78,545 94,557 110,568 128,577 146,584 166,590 186,593 206,594 206,594 227,593 247,590 266,584 284,577 302,568 319,557 334,545 348,531 362,516 373,500 383,482 392,464 399,444 403,424 407,403 408,381 408,381 407,360 403,338 399,318 392,299 383,280 373,262 362,246 348,231 334,217 319,205 302,194 284,185 266,178 247,173 227,170 206,169 206,169 z" fill-rule="nonzero"/>
<path class="pen1 brush6" d="M 207,167  L 207,167 186,168 166,171 147,177 128,184 111,193 94,204 78,216 64,230 51,245 39,261 29,279 20,298 14,317 9,338 5,359 4,381 4,381 5,402 9,424 14,444 20,464 29,482 39,500 51,516 64,532 78,545 94,558 111,568 128,577 147,585 166,590 186,593 207,594 207,594 227,593 248,590 267,585 286,577 303,568 320,558 335,545 350,532 363,516 375,500 385,482 393,464 400,444 405,424 408,402 409,381 409,381 408,359 405,338 400,317 393,298 385,279 375,261 363,245 350,230 335,216 320,204 303,193 286,184 267,177 248,171 227,168 207,167 207,167 z" fill-rule="nonzero"/>
<path class="pen1 brush7" d="M 208,165  L 208,165 187,167 167,170 147,175 129,182 111,191 94,202 78,215 64,228 51,244 39,260 29,278 20,297 13,316 8,337 5,358 4,380 4,380 5,402 8,423 13,444 20,464 29,482 39,500 51,516 64,532 78,546 94,558 111,569 129,578 147,585 167,590 187,594 208,595 208,595 228,594 248,590 268,585 287,578 304,569 321,558 337,546 351,532 364,516 376,500 386,482 395,464 402,444 407,423 410,402 411,380 411,380 410,358 407,337 402,316 395,297 386,278 376,260 364,244 351,228 337,215 321,202 304,191 287,182 268,175 248,170 228,167 208,165 208,165 z" fill-rule="nonzero"/>
<path class="pen1 brush8" d="M 208,164  L 208,164 187,165 167,168 148,174 129,181 111,190 94,201 78,213 64,227 51,242 39,259 29,277 20,296 13,315 8,336 5,357 4,379 4,379 5,401 8,423 13,444 20,463 29,482 39,500 51,517 64,532 78,546 94,558 111,569 129,578 148,585 167,591 187,594 208,595 208,595 229,594 249,591 269,585 288,578 305,569 322,558 338,546 353,532 366,517 378,500 388,482 396,463 403,444 408,423 411,401 413,379 413,379 411,357 408,336 403,315 396,296 388,277 378,259 366,242 353,227 338,213 322,201 305,190 288,181 269,174 249,168 229,165 208,164 208,164 z" fill-rule="nonzero"/>
<path class="pen1 brush9" d="M 209,162  L 209,162 188,163 168,167 148,172 129,179 111,188 94,199 78,212 64,226 51,241 39,258 28,276 20,295 13,315 8,335 5,357 4,379 4,379 5,401 8,422 13,443 20,463 28,482 39,500 51,517 64,532 78,546 94,559 111,569 129,579 148,586 168,591 188,594 209,596 209,596 230,594 250,591 270,586 289,579 307,569 324,559 339,546 354,532 367,517 379,500 389,482 398,463 405,443 410,422 413,401 414,379 414,379 413,357 410,335 405,315 398,295 389,276 379,258 367,241 354,226 339,212 324,199 307,188 289,179 270,172 250,167 230,163 209,162 209,162 z" fill-rule="nonzero"/>
<path class="pen1 brush10" d="M 210,161  L 210,161 189,162 168,165 148,170 129,178 111,187 94,198 79,210 64,225 51,240 39,257 28,275 20,294 13,314 8,335 4,356 3,378 3,378 4,401 8,422 13,443 20,463 28,482 39,500 51,517 64,532 79,546 94,559 111,570 129,579 148,586 168,592 189,595 210,596 210,596 231,595 251,592 271,586 290,579 308,570 325,559 341,546 355,532 369,517 381,500 391,482 400,463 407,443 412,422 415,401 416,378 416,378 415,356 412,335 407,314 400,294 391,275 381,257 369,240 355,225 341,210 325,198 308,187 290,178 271,170 251,165 231,162 210,161 210,161 z" fill-rule="nonzero"/>
<path class="pen1 brush11" d="M 210,159  L 210,159 189,160 169,164 149,169 130,176 112,186 95,196 79,209 64,223 51,239 39,256 28,274 19,293 12,313 7,334 4,355 3,378 3,378 4,400 7,422 12,443 19,463 28,482 39,500 51,517 64,532 79,546 95,559 112,570 130,579 149,587 169,592 189,595 210,596 210,596 231,595 252,592 272,587 291,579 309,570 326,559 342,546 357,532 370,517 382,500 392,482 401,463 408,443 413,422 416,400 417,378 417,378 416,355 413,334 408,313 401,293 392,274 382,256 370,239 357,223 342,209 326,196 309,186 291,176 272,169 252,164 231,160 210,159 210,159 z" fill-rule="nonzero"/>
<path class="pen1 brush12" d="M 211,157  L 211,157 190,159 169,162 149,167 130,175 112,184 95,195 79,208 64,222 50,238 38,254 28,273 19,292 12,312 7,333 4,355 3,377 3,377 4,400 7,421 12,442 19,463 28,482 38,500 50,517 64,532 79,547 95,559 112,570 130,580 149,587 169,592 190,596 211,597 211,597 232,596 253,592 273,587 292,580 310,570 327,559 343,547 358,532 372,517 384,500 394,482 403,463 410,442 415,421 418,400 419,377 419,377 418,355 415,333 410,312 403,292 394,273 384,254 372,238 358,222 343,208 327,195 310,184 292,175 273,167 253,162 232,159 211,157 211,157 z" fill-rule="nonzero"/>
<path class="pen1 brush13" d="M 212,156  L 212,156 190,157 170,160 150,166 130,173 112,183 95,194 79,206 64,221 50,236 38,253 28,272 19,291 12,311 7,332 4,354 3,377 3,377 4,399 7,421 12,442 19,462 28,482 38,500 50,517 64,533 79,547 95,560 112,571 130,580 150,587 170,593 190,596 212,597 212,597 233,596 254,593 274,587 293,580 311,571 328,560 345,547 359,533 373,517 385,500 395,482 404,462 411,442 417,421 420,399 421,377 421,377 420,354 417,332 411,311 404,291 395,272 385,253 373,236 359,221 345,206 328,194 311,183 293,173 274,166 254,160 233,157 212,156 212,156 z" fill-rule="nonzero"/>
<path class="pen1 brush14" d="M 212,154  L 212,154 191,155 170,159 150,164 131,172 112,181 95,192 79,205 64,219 50,235 38,252 28,270 19,290 12,310 7,331 3,353 2,376 2,376 3,399 7,421 12,442 19,462 28,482 38,500 50,517 64,533 79,547 95,560 112,571 131,580 150,588 170,593 191,597 212,598 212,598 234,597 255,593 275,588 294,580 312,571 330,560 346,547 361,533 374,517 386,500 397,482 406,462 413,442 418,421 421,399 422,376 422,376 421,353 418,331 413,310 406,290 397,270 386,252 374,235 361,219 346,205 330,192 312,181 294,172 275,164 255,159 234,155 212,154 212,154 z" fill-rule="nonzero"/>
<path class="pen1 brush15" d="M 213,153  L 213,153 192,154 171,157 150,163 131,170 113,180 95,191 79,204 64,218 50,234 38,251 28,269 19,289 12,309 6,331 3,353 2,375 2,375 3,398 6,420 12,442 19,462 28,481 38,500 50,517 64,533 79,547 95,560 113,571 131,581 150,588 171,594 192,597 213,598 213,598 235,597 256,594 276,588 295,581 314,571 331,560 347,547 362,533 376,517 388,500 399,481 407,462 415,442 420,420 423,398 424,375 424,375 423,353 420,331 415,309 407,289 399,269 388,251 376,234 362,218 347,204 331,191 314,180 295,170 276,163 256,157 235,154 213,153 213,153 z" fill-rule="nonzero"/>
<path class="pen1 brush16" d="M 214,151  L 214,151 192,152 171,156 151,161 131,169 113,178 95,189 79,202 64,217 50,233 38,250 27,268 18,288 11,308 6,330 3,352 2,375 2,375 3,398 6,420 11,441 18,462 27,481 38,500 50,517 64,533 79,547 95,560 113,572 131,581 151,589 171,594 192,597 214,599 214,599 235,597 256,594 277,589 296,581 315,572 332,560 348,547 364,533 377,517 389,500 400,481 409,462 416,441 421,420 425,398 426,375 426,375 425,352 421,330 416,308 409,288 400,268 389,250 377,233 364,217 348,202 332,189 315,178 296,169 277,161 256,156 235,152 214,151 214,151 z" fill-rule="nonzero"/>
<path class="pen1 brush17" d="M 214,149  L 214,149 193,151 172,154 151,160 132,167 113,177 96,188 79,201 64,215 50,231 38,249 27,267 18,287 11,308 6,329 3,351 2,374 2,374 3,397 6,419 11,441 18,462 27,481 38,500 50,517 64,533 79,548 96,561 113,572 132,581 151,589 172,594 193,598 214,599 214,599 236,598 257,594 278,589 297,581 316,572 333,561 350,548 365,533 379,517 391,500 402,481 411,462 418,441 423,419 426,397 427,374 427,374 426,351 423,329 418,308 411,287 402,267 391,249 379,231 365,215 350,201 333,188 316,177 297,167 278,160 257,154 236,151 214,149 214,149 z" fill-rule="nonzero"/>
<path class="pen1 brush10" d="M 212,157  L 212,157 191,158 171,161 151,167 133,174 115,183 98,194 83,207 68,221 55,236 43,253 33,271 25,290 18,310 13,330 10,352 9,374 9,374 10,396 13,418 18,438 25,458 33,477 43,495 55,512 68,527 83,541 98,554 115,565 133,574 151,581 171,586 191,590 212,591 212,591 232,590 252,586 272,581 290,574 308,565 325,554 340,541 355,527 368,512 380,495 390,477 398,458 405,438 410,418 413,396 414,374 414,374 413,352 410,330 405,310 398,290 390,271 380,253 368,236 355,221 340,207 325,194 308,183 290,174 272,167 252,161 232,158 212,157 212,157 z" fill-rule="nonzero"/>
<path class="pen1 brush18" d="M 212,161  L 212,161 192,162 173,165 154,170 136,178 118,186 102,197 87,209 73,223 60,238 49,254 39,272 31,290 24,310 19,330 16,351 15,372 15,372 16,394 20,415 24,435 31,454 40,472 50,490 61,506 74,521 88,535 103,547 120,557 137,566 155,573 174,578 194,581 214,582 214,582 234,581 253,578 272,573 291,565 308,556 324,546 339,534 353,520 366,505 377,489 387,471 395,453 402,433 407,413 410,392 411,371 411,371 410,349 407,328 402,308 395,289 387,270 377,253 365,237 352,222 338,208 323,196 307,186 289,177 271,170 252,165 233,162 212,161 212,161 z" fill-rule="nonzero"/>
<path class="pen1 brush9" d="M 213,164  L 213,164 194,165 175,169 156,174 138,181 122,190 106,200 91,212 78,225 65,240 54,256 45,273 37,291 30,310 26,329 23,350 22,370 22,370 23,391 26,412 31,431 38,450 46,468 56,485 67,500 79,515 93,528 108,539 124,550 141,558 159,565 177,570 196,573 216,574 216,574 236,572 255,569 273,564 291,557 307,548 323,538 338,526 352,512 364,498 375,482 384,465 392,447 399,428 403,409 406,388 407,367 407,367 406,346 403,326 398,307 391,288 383,270 373,253 362,238 350,223 336,210 321,198 305,188 288,180 270,173 252,168 233,165 213,164 213,164 z" fill-rule="nonzero"/>
<path class="pen1 brush19" d="M 214,168  L 214,168 195,169 176,172 158,177 141,184 125,193 110,203 95,215 82,228 70,242 60,257 50,274 43,291 36,310 32,329 29,348 29,369 29,369 30,389 33,409 38,428 44,446 52,463 62,479 73,494 85,508 98,521 113,532 129,542 145,550 162,557 180,561 199,564 218,565 218,565 237,564 256,561 274,555 291,548 307,540 322,530 337,518 350,505 362,491 373,475 382,459 390,441 396,423 400,404 403,384 404,364 404,364 402,344 399,324 394,305 388,287 380,270 370,253 359,238 347,224 334,212 319,200 304,191 287,182 270,176 252,171 233,169 214,168 214,168 z" fill-rule="nonzero"/>
<path class="pen1 brush8" d="M 215,171  L 215,171 196,173 178,176 161,181 144,188 128,196 113,206 100,217 87,230 75,244 65,259 56,275 48,292 43,310 38,328 36,347 35,367 35,367 36,387 39,406 44,424 51,442 59,458 68,474 79,489 91,502 104,514 118,525 133,535 149,542 166,549 184,553 202,556 220,556 220,556 239,555 257,552 274,547 291,540 307,532 322,522 336,510 348,498 360,484 370,469 379,453 387,436 393,418 397,400 399,380 400,361 400,361 399,341 396,322 391,304 385,286 377,269 367,254 356,239 345,226 331,213 317,203 302,193 286,185 269,179 252,175 233,172 215,171 215,171 z" fill-rule="nonzero"/>
<path class="pen1 brush20" d="M 216,175  L 216,175 198,176 180,179 163,184 147,191 132,199 117,209 104,220 91,232 80,246 70,260 62,276 54,293 49,310 45,328 42,346 42,365 42,365 43,384 46,403 51,420 57,437 65,454 74,469 85,483 96,496 109,508 123,518 138,527 153,535 170,541 187,545 204,547 222,548 222,548 241,546 258,543 275,538 291,532 306,523 321,514 334,503 347,490 358,477 368,462 376,447 384,430 389,413 393,395 396,376 396,357 396,357 395,338 392,320 387,302 381,285 373,269 364,254 354,240 342,227 329,215 315,205 300,196 285,188 268,182 251,178 234,175 216,175 216,175 z" fill-rule="nonzero"/>
<path class="pen1 brush7" d="M 216,178  L 216,178 199,180 182,183 166,188 150,195 135,203 121,212 108,223 96,235 85,248 76,262 67,277 60,293 55,310 51,327 49,345 48,364 48,364 50,382 53,400 57,417 64,433 71,449 80,464 90,477 102,490 114,501 128,511 142,520 157,527 173,533 190,537 207,539 225,539 225,539 242,538 259,535 276,530 291,523 306,515 320,506 333,495 345,483 356,470 366,456 374,441 381,425 386,408 390,390 392,373 393,354 393,354 391,336 388,318 384,301 378,284 370,269 361,254 351,241 339,228 327,217 313,207 299,198 284,191 268,185 251,181 234,179 216,178 216,178 z" fill-rule="nonzero"/>
<path class="pen1 brush6" d="M 217,182  L 217,182 200,183 184,187 168,192 153,198 138,206 125,215 112,225 101,237 90,250 81,264 73,278 66,294 61,310 57,327 55,344 55,362 55,362 56,380 59,397 64,413 70,429 77,444 86,458 96,471 107,483 120,494 133,504 147,512 162,519 177,524 193,528 210,530 227,531 227,531 244,529 260,526 276,521 291,515 306,507 319,498 332,487 343,476 354,463 363,449 371,434 378,419 383,403 387,386 389,369 389,351 389,351 388,333 385,316 380,299 374,283 367,269 358,254 348,241 337,229 325,218 311,209 297,200 283,194 267,188 251,184 234,182 217,182 217,182 z" fill-rule="nonzero"/>
<path class="pen1 brush21" d="M 218,186  L 218,186 202,187 186,190 170,195 156,201 142,209 129,218 116,228 105,239 95,252 86,265 79,279 72,294 67,310 64,326 62,343 62,360 62,360 63,377 66,394 71,410 76,425 84,439 92,453 102,466 113,477 125,488 138,497 151,505 166,511 181,516 196,520 212,522 229,522 229,522 245,521 261,517 277,513 291,506 305,499 318,490 331,480 342,468 352,456 361,443 369,428 375,413 380,398 383,381 385,365 386,347 386,347 384,330 381,314 377,298 371,283 363,268 355,255 345,242 334,230 322,220 310,211 296,203 281,196 266,191 251,188 235,186 218,186 218,186 z" fill-rule="nonzero"/>
<path class="pen1 brush5" d="M 219,189  L 219,189 203,191 188,194 173,199 158,205 145,212 132,221 121,231 110,242 100,254 92,267 84,280 78,295 73,310 70,326 68,342 68,358 68,358 70,375 73,391 77,406 83,421 90,435 98,448 108,460 119,471 130,481 143,490 156,497 170,503 184,508 199,512 215,513 231,513 231,513 247,512 263,509 277,504 292,498 305,490 318,482 329,472 340,461 350,449 358,436 366,422 372,408 377,393 380,377 382,361 382,344 382,344 380,328 377,312 373,296 367,282 360,268 352,255 342,243 332,232 320,222 308,213 294,205 280,199 266,194 251,191 235,189 219,189 219,189 z" fill-rule="nonzero"/>
<path class="pen1 brush22" d="M 220,193  L 220,193 204,194 189,197 175,202 161,208 148,215 136,224 125,233 115,244 105,256 97,268 90,281 84,295 80,310 77,325 75,341 75,357 75,357 76,373 79,388 84,403 89,417 96,430 105,442 114,454 124,465 135,474 147,483 160,490 174,496 188,500 203,503 218,505 233,505 233,505 249,503 264,500 278,495 292,489 305,482 317,474 328,464 339,453 348,442 356,429 363,416 369,402 373,388 377,372 378,357 378,341 378,341 377,325 374,310 369,295 364,281 357,268 349,255 339,244 329,233 318,223 306,215 293,208 279,202 265,197 250,194 235,193 220,193 220,193 z" fill-rule="nonzero"/>
<path class="pen1 brush23" d="M 221,196  L 221,196 206,198 191,201 177,206 164,211 152,219 140,227 129,236 119,246 110,258 102,270 96,283 90,296 86,310 83,325 81,340 81,355 81,355 83,370 86,385 90,399 96,413 103,425 111,437 120,448 130,458 141,467 152,475 165,482 178,488 192,492 206,495 221,496 236,496 236,496 250,495 265,491 279,487 292,481 304,474 316,466 327,456 337,446 346,435 354,423 361,410 366,397 370,382 373,368 375,353 375,338 375,338 373,322 370,308 366,293 360,280 353,267 345,255 336,244 326,234 315,225 304,217 291,210 278,205 264,200 250,198 236,196 221,196 221,196 z" fill-rule="nonzero"/>
<path class="pen1 brush3" d="M 221,200  L 221,200 207,202 193,205 180,209 167,215 155,222 144,230 133,239 124,249 115,260 108,271 101,284 96,297 92,310 89,324 88,338 88,353 88,353 90,368 93,382 97,395 102,408 109,421 117,432 126,442 135,452 146,461 157,468 169,475 182,480 195,484 209,487 223,488 238,488 238,488 252,486 266,483 279,478 292,473 304,466 315,458 326,449 335,439 344,428 351,416 358,404 363,391 367,377 370,363 371,349 371,334 371,334 370,320 367,306 362,292 357,279 350,267 342,256 334,245 324,235 313,227 302,219 290,213 277,208 264,204 250,201 236,200 221,200 221,200 z" fill-rule="nonzero"/>
<path class="pen1 brush24" d="M 222,203  L 222,203 208,205 195,208 182,213 170,218 158,225 148,233 138,241 128,251 120,262 113,273 107,285 102,297 98,310 96,324 94,337 95,351 95,351 96,365 99,379 103,392 109,404 115,416 123,427 131,437 141,446 151,454 162,461 174,467 186,472 199,476 212,478 226,479 240,479 240,479 254,477 267,474 280,470 292,464 304,457 315,450 325,441 334,431 342,421 349,410 355,398 360,385 364,372 366,359 368,345 368,331 368,331 366,317 363,303 359,291 353,278 347,267 339,256 331,246 321,237 311,228 300,221 288,215 276,210 263,207 250,204 236,203 222,203 222,203 z" fill-rule="nonzero"/>
<path class="pen1 brush25" d="M 223,207  L 223,207 210,209 197,212 184,216 173,222 162,228 151,236 142,244 133,253 125,264 118,274 113,286 108,298 104,310 102,323 101,336 101,350 101,350 103,363 106,376 110,388 115,400 122,411 129,421 137,431 146,440 156,447 167,454 178,460 190,464 203,468 215,470 229,471 242,470 242,470 255,469 268,465 281,461 292,456 303,449 314,442 323,433 332,424 340,414 347,403 353,392 357,380 361,367 363,354 364,341 364,328 364,328 362,314 359,301 355,289 350,277 343,266 336,256 328,246 319,238 309,230 298,223 287,218 275,213 262,210 250,207 236,207 223,207 223,207 z" fill-rule="nonzero"/>
<path class="pen1 brush2" d="M 224,211  L 224,211 211,212 199,216 187,220 176,225 165,231 155,239 146,247 138,256 130,265 124,276 118,287 114,298 110,310 108,323 107,335 108,348 108,348 109,361 112,373 117,385 122,396 128,406 135,416 143,425 152,433 162,441 172,447 183,452 194,456 206,460 219,462 231,462 244,462 244,462 257,460 269,457 281,453 292,447 303,441 313,434 322,426 330,417 338,407 344,397 350,386 354,374 358,362 360,350 361,337 360,324 360,324 359,312 356,299 352,288 346,276 340,266 333,256 325,247 316,239 306,232 296,225 285,220 274,216 262,213 249,211 237,210 224,211 224,211 z" fill-rule="nonzero"/>
<path class="pen1 brush18" d="M 300,426  L 300,426 292,422 285,419 277,417 270,416 263,415 256,416 245,418 245,418 238,410 233,401 229,391 225,380 223,369 222,356 222,344 223,331 223,331 224,321 226,313 229,305 232,297 235,289 239,283 243,277 248,271 253,266 258,262 263,258 269,256 274,254 280,253 286,253 292,253 292,253 298,255 303,258 309,261 314,265 318,270 322,275 326,282 329,288 335,303 338,319 339,337 339,346 338,355 338,355 336,367 333,378 329,389 324,398 319,407 313,414 307,421 300,426 300,426 z" fill-rule="nonzero"/>
<path class="pen1 brush17" d="M 291,271  L 291,271 286,270 281,270 276,271 271,273 266,275 262,279 258,282 253,287 246,298 240,311 235,326 232,343 232,343 231,355 231,367 232,378 234,389 237,399 241,408 246,416 251,424 251,424 261,422 266,422 272,422 279,423 285,425 291,428 298,432 298,432 304,427 309,421 314,414 319,406 323,397 326,387 329,376 330,365 330,365 331,348 330,332 327,317 323,303 317,291 313,286 309,282 305,278 301,275 296,272 291,271 291,271 z" fill-rule="nonzero"/>
<path class="pen1 brush0" d="M 288,279  L 288,279 283,279 279,280 275,281 270,283 262,289 255,298 249,309 244,321 240,335 238,350 238,350 238,361 238,372 240,383 242,393 245,402 249,410 254,417 259,422 259,422 266,422 274,422 282,424 290,427 290,427 297,423 303,417 308,410 313,402 318,393 321,382 324,371 325,359 325,359 326,344 324,329 321,316 317,305 311,295 304,287 301,284 297,282 292,280 288,279 288,279 z" fill-rule="nonzero"/>
<path class="pen1 brush26" d="M 287,292  L 287,292 291,293 295,295 299,297 302,300 309,307 315,316 319,328 322,340 324,354 324,369 324,369 325,359 325,359 326,344 324,329 321,316 317,305 311,295 304,287 301,284 297,282 292,280 288,279 288,279 283,279 279,280 275,281 270,283 262,289 255,298 249,309 244,321 240,335 238,350 238,350 238,354 238,354 241,340 245,328 250,317 256,308 263,301 270,296 274,294 278,293 282,292 287,292 287,292 z" fill-rule="nonzero"/>
<path class="pen1 brush27" d="M 237,426  L 237,426 246,423 256,421 267,420 273,421 280,422 286,424 293,428 299,433 305,439 310,447 315,456 315,456 311,450 306,444 299,438 294,434 288,431 282,429 275,427 267,425 258,425 248,425 237,426 237,426 z" fill-rule="nonzero"/>
<path class="pen1 brush28" d="M 284,209  L 284,209 289,206 294,204 299,204 305,206 311,210 316,216 322,223 326,232 326,232 333,248 338,261 341,271 343,280 344,291 345,293 345,293 343,289 340,279 335,267 327,253 319,239 314,234 309,229 303,225 298,223 292,223 286,225 286,225 275,231 267,236 267,236 264,237 260,238 257,237 255,235 253,233 252,230 251,226 252,222 252,222 253,222 253,222 255,225 256,226 258,227 260,228 263,227 263,227 268,224 272,221 276,216 284,209 284,209 z" fill-rule="nonzero"/>
<path class="pen1 brush18" d="M 123,426  L 123,426 131,422 138,419 146,417 153,416 160,415 167,416 178,418 178,418 184,410 190,401 194,391 197,380 200,369 201,356 201,344 200,331 200,331 199,321 197,313 194,305 191,297 188,289 184,283 180,277 175,271 170,266 165,262 160,258 154,256 148,254 143,253 137,253 131,253 131,253 125,255 119,258 114,261 109,265 105,270 101,275 97,282 93,288 88,303 85,319 84,337 84,346 85,355 85,355 87,367 90,378 94,389 98,398 104,407 110,414 116,421 123,426 123,426 z" fill-rule="nonzero"/>
<path class="pen1 brush17" d="M 126,428  L 126,428 132,424 139,421 145,419 151,418 157,418 163,418 173,420 173,420 178,413 183,404 186,395 189,385 191,374 192,363 192,351 192,339 192,339 189,322 184,307 178,294 170,283 166,279 162,275 157,271 152,269 148,267 143,266 138,266 133,267 133,267 128,268 123,271 118,274 114,278 110,282 107,287 101,299 96,313 93,328 92,344 93,361 93,361 95,373 98,383 101,393 105,402 109,410 115,417 120,423 126,428 126,428 z" fill-rule="nonzero"/>
<path class="pen1 brush0" d="M 134,423  L 134,423 142,420 150,418 158,418 165,418 165,418 170,413 175,406 179,398 182,389 184,379 186,369 186,358 186,346 186,346 183,331 180,317 175,305 168,294 161,286 153,279 149,277 145,276 140,275 136,275 136,275 131,276 127,278 123,280 119,283 112,291 107,301 102,312 99,326 98,340 98,355 98,355 100,367 103,378 106,389 110,398 115,406 121,413 127,419 134,423 134,423 z" fill-rule="nonzero"/>
<path class="pen1 brush29" d="M 116,359  L 116,359 118,366 121,373 124,380 128,385 133,389 138,392 144,393 150,393 150,393 156,392 161,389 165,385 169,379 171,373 173,366 174,359 173,351 173,351 172,343 169,336 165,330 161,325 156,320 151,317 145,316 140,316 140,316 134,318 129,321 125,325 121,330 118,336 117,343 116,351 116,359 116,359 z" fill-rule="nonzero"/>
<path class="pen1 brush30" d="M 124,358  L 124,358 125,364 127,369 129,374 133,378 136,381 140,383 144,384 149,384 149,384 153,383 157,381 160,377 162,373 164,369 166,363 166,358 166,352 166,352 165,346 163,340 160,336 157,332 153,329 149,326 145,325 141,325 141,325 137,326 133,329 130,332 127,336 125,341 124,346 123,352 124,358 124,358 z" fill-rule="nonzero"/>
<path class="pen1 brush31" d="M 131,356  L 131,356 133,363 137,368 139,370 142,372 144,372 147,372 147,372 150,372 152,370 155,368 156,366 159,360 159,352 159,352 157,345 153,340 151,338 148,337 145,336 143,336 143,336 140,337 137,338 135,340 133,343 131,349 131,356 131,356 z" fill-rule="nonzero"/>
<path class="pen1 brush0" d="M 144,341  L 144,341 145,344 146,346 148,348 150,348 150,348 152,348 154,346 155,344 155,341 155,341 155,338 154,336 152,334 150,334 150,334 148,334 146,336 145,338 144,341 144,341 z" fill-rule="nonzero"/>
<path class="pen1 brush0" d="M 137,362  L 137,362 134,363 133,365 133,365 134,368 136,369 136,369 138,368 140,366 140,366 139,363 137,362 137,362 z" fill-rule="nonzero"/>
<path class="pen1 brush29" d="M 306,360  L 306,360 306,368 304,375 301,382 297,387 293,392 287,395 282,397 276,398 276,398 270,397 265,394 260,390 256,385 253,380 251,373 249,365 249,358 249,358 250,350 252,342 255,336 259,330 263,326 268,322 273,320 279,320 279,320 285,321 290,323 295,327 299,332 302,338 305,345 306,352 306,360 306,360 z" fill-rule="nonzero"/>
<path class="pen1 brush30" d="M 299,360  L 299,360 298,366 297,371 295,376 292,380 289,384 285,386 281,388 277,388 277,388 272,388 268,386 265,383 262,379 259,374 258,369 257,364 256,358 256,358 257,352 259,346 261,341 263,337 267,334 270,331 274,329 279,329 279,329 283,330 287,332 291,335 294,338 296,343 298,348 299,354 299,360 299,360 z" fill-rule="nonzero"/>
<path class="pen1 brush31" d="M 291,359  L 291,359 290,366 287,372 285,374 282,375 280,376 277,377 277,377 274,376 272,375 269,373 267,371 264,365 264,358 264,358 265,351 268,345 270,343 273,341 275,340 278,340 278,340 281,340 284,342 286,343 288,346 291,352 291,359 291,359 z" fill-rule="nonzero"/>
<path class="pen1 brush0" d="M 277,345  L 277,345 277,348 276,350 274,352 272,353 272,353 270,352 268,351 267,349 266,346 266,346 266,343 267,341 269,339 271,338 271,338 273,339 275,340 276,342 277,345 277,345 z" fill-rule="nonzero"/>
<path class="pen1 brush0" d="M 286,365  L 286,365 289,366 290,368 290,368 290,370 288,372 288,372 285,372 284,369 284,369 284,367 286,365 286,365 z" fill-rule="nonzero"/>
<path class="pen1 brush26" d="M 137,288  L 137,288 133,289 129,291 125,293 121,296 114,303 109,313 104,324 101,336 100,350 100,365 100,365 98,355 98,355 98,340 99,326 102,312 107,301 112,291 119,283 123,280 127,278 131,276 136,275 136,275 140,275 145,276 149,277 153,279 161,286 168,294 175,305 180,317 183,331 186,346 186,346 186,350 186,350 183,336 179,324 174,314 168,304 161,297 153,292 149,290 145,289 141,288 137,288 137,288 z" fill-rule="nonzero"/>
<path class="pen1 brush28" d="M 137,217  L 137,217 132,213 127,212 121,212 116,214 110,218 104,223 99,231 94,240 94,240 88,255 83,268 80,279 78,288 76,299 76,301 76,301 77,297 81,287 86,274 93,260 102,247 107,241 112,237 117,233 123,231 129,231 135,233 135,233 145,239 153,244 153,244 157,245 160,245 163,245 166,243 168,240 169,237 169,234 168,230 168,230 168,230 167,230 166,233 164,234 162,235 160,236 158,235 158,235 153,232 149,228 144,223 137,217 137,217 z" fill-rule="nonzero"/>
<path class="pen1 brush2" d="M 300,447  L 300,447 299,450 297,453 294,455 291,457 288,458 283,459 279,459 274,459 274,459 269,458 265,457 261,455 258,452 256,450 254,447 253,444 253,441 253,441 254,438 255,435 258,433 261,431 265,430 269,429 273,429 278,429 278,429 283,430 287,431 291,433 294,436 297,438 299,441 300,444 300,447 300,447 z" fill-rule="nonzero"/>
<path class="pen1 brush25" d="M 253,441  L 253,441 254,438 256,435 258,433 262,432 265,430 269,429 273,429 278,429 278,429 283,430 287,432 290,434 293,436 296,438 298,441 299,444 299,447 299,447 298,450 296,452 294,455 291,456 287,458 283,458 279,459 274,458 274,458 270,457 266,456 262,454 259,452 256,449 255,447 254,444 253,441 253,441 z" fill-rule="nonzero"/>
<path class="pen1 brush32" d="M 254,441  L 254,441 255,438 257,436 259,434 262,432 269,430 278,430 278,430 286,432 293,436 295,439 297,441 298,444 298,447 298,447 297,450 295,452 293,454 290,456 283,458 274,458 274,458 266,456 259,452 257,449 255,447 254,444 254,441 254,441 z" fill-rule="nonzero"/>
<path class="pen1 brush23" d="M 255,441  L 255,441 256,438 258,436 260,434 263,432 270,431 278,431 278,431 286,433 292,436 294,439 296,441 297,444 297,447 297,447 296,449 295,452 292,454 290,455 283,457 274,457 274,457 266,455 260,451 258,449 256,446 255,444 255,441 255,441 z" fill-rule="nonzero"/>
<path class="pen1 brush4" d="M 256,441  L 256,441 257,439 258,436 260,435 263,433 270,431 278,431 278,431 285,433 291,437 294,439 295,441 296,444 296,447 296,447 295,449 294,451 292,453 289,455 282,457 274,457 274,457 267,455 261,451 259,449 257,446 256,444 256,441 256,441 z" fill-rule="nonzero"/>
<path class="pen1 brush33" d="M 257,441  L 257,441 258,439 259,437 264,433 270,432 278,432 278,432 285,434 291,437 294,442 295,444 295,447 295,447 295,449 293,451 288,454 282,456 274,456 274,456 267,454 261,451 258,446 257,444 257,441 257,441 z" fill-rule="nonzero"/>
<path class="pen1 brush34" d="M 258,441  L 258,441 259,439 260,437 264,434 270,432 278,432 278,432 285,434 290,437 294,442 294,444 294,446 294,446 294,449 292,451 288,454 282,456 275,456 275,456 268,454 262,450 259,446 258,444 258,441 258,441 z" fill-rule="nonzero"/>
<path class="pen1 brush35" d="M 259,442  L 259,442 259,439 261,437 265,434 271,433 278,433 278,433 284,435 289,438 293,442 293,444 293,446 293,446 293,448 292,450 287,453 281,455 275,455 275,455 268,453 263,450 260,446 259,444 259,442 259,442 z" fill-rule="nonzero"/>
<path class="pen1 brush36" d="M 260,442  L 260,442 260,440 261,438 265,435 271,433 278,433 278,433 284,435 289,438 292,442 293,444 293,446 293,446 292,448 291,450 287,453 281,454 275,454 275,454 268,453 263,450 260,446 260,444 260,442 260,442 z" fill-rule="nonzero"/>
<path class="pen1 brush7" d="M 260,442  L 260,442 261,440 262,438 266,435 271,434 277,434 277,434 283,436 288,438 291,442 292,444 292,446 292,446 291,448 290,450 286,452 281,454 275,454 275,454 269,452 264,449 261,446 261,444 260,442 260,442 z" fill-rule="nonzero"/>
<path class="pen1 brush20" d="M 261,442  L 261,442 263,438 267,436 272,434 277,434 277,434 283,436 287,439 290,442 291,446 291,446 289,449 286,452 281,453 275,453 275,453 269,452 265,449 262,446 261,442 261,442 z" fill-rule="nonzero"/>
<path class="pen1 brush37" d="M 262,442  L 262,442 264,439 267,436 272,435 277,435 277,435 283,436 287,439 289,442 290,446 290,446 288,449 285,452 280,453 275,453 275,453 270,451 265,449 263,446 262,442 262,442 z" fill-rule="nonzero"/>
<path class="pen1 brush38" d="M 263,442  L 263,442 265,439 268,437 272,436 277,436 277,436 282,437 286,439 289,442 289,446 289,446 288,449 285,451 280,452 275,452 275,452 270,451 266,449 264,446 263,442 263,442 z" fill-rule="nonzero"/>
<path class="pen1 brush9" d="M 288,446  L 288,446 287,448 284,451 280,452 275,452 275,452 270,450 267,448 265,445 264,442 264,442 265,439 268,437 272,436 277,436 277,436 282,437 285,440 288,442 288,446 288,446 z" fill-rule="nonzero"/>
<path class="pen1 brush2" d="M 178,440  L 178,440 177,443 176,446 174,449 172,451 168,453 165,455 160,457 155,457 155,457 151,457 146,457 142,456 138,454 135,453 133,450 131,447 130,445 130,445 131,441 132,438 134,436 136,433 140,431 144,429 148,428 153,427 153,427 157,427 162,427 166,428 170,430 173,432 175,434 177,437 178,440 178,440 z" fill-rule="nonzero"/>
<path class="pen1 brush25" d="M 131,444  L 131,444 131,441 133,439 134,436 137,434 140,431 144,430 148,428 153,428 153,428 157,428 162,428 166,429 169,430 172,432 174,435 176,437 177,440 177,440 177,443 176,446 174,448 171,451 168,453 164,455 160,456 155,457 155,457 151,457 146,456 143,455 139,454 136,452 134,450 132,447 131,444 131,444 z" fill-rule="nonzero"/>
<path class="pen1 brush32" d="M 132,444  L 132,444 132,441 133,439 135,436 138,434 144,430 153,428 153,428 161,429 169,431 171,433 174,435 175,437 176,440 176,440 176,443 175,446 173,448 170,451 164,454 155,456 155,456 147,456 140,454 137,452 134,450 133,447 132,444 132,444 z" fill-rule="nonzero"/>
<path class="pen1 brush23" d="M 133,444  L 133,444 133,442 134,439 136,436 138,434 145,431 153,429 153,429 161,429 168,431 171,433 173,435 174,438 175,440 175,440 175,443 174,446 172,448 170,450 163,454 155,456 155,456 147,455 140,453 137,451 135,449 134,447 133,444 133,444 z" fill-rule="nonzero"/>
<path class="pen1 brush4" d="M 134,444  L 134,444 134,442 135,439 137,437 139,435 145,431 153,429 153,429 161,430 167,432 170,433 172,435 173,438 174,440 174,440 174,443 173,445 171,448 169,450 163,453 155,455 155,455 147,455 141,453 138,451 136,449 135,447 134,444 134,444 z" fill-rule="nonzero"/>
<path class="pen1 brush33" d="M 135,444  L 135,444 135,442 136,439 140,435 145,432 153,430 153,430 160,430 167,432 171,436 173,438 173,440 173,440 173,443 172,445 168,450 163,453 155,454 155,454 148,454 141,452 137,449 135,447 135,444 135,444 z" fill-rule="nonzero"/>
<path class="pen1 brush34" d="M 136,444  L 136,444 136,442 137,439 140,435 146,432 153,431 153,431 160,431 166,433 170,436 172,438 172,440 172,440 172,443 171,445 168,449 162,452 155,454 155,454 148,454 142,452 138,448 136,446 136,444 136,444 z" fill-rule="nonzero"/>
<path class="pen1 brush35" d="M 137,444  L 137,444 137,442 138,439 141,436 146,433 153,431 153,431 160,431 166,433 170,436 171,438 171,441 171,441 171,443 171,445 167,449 162,452 155,453 155,453 148,453 142,451 138,448 137,446 137,444 137,444 z" fill-rule="nonzero"/>
<path class="pen1 brush36" d="M 137,444  L 137,444 138,442 138,440 142,436 147,433 153,432 153,432 160,432 165,434 169,437 170,439 171,441 171,441 170,443 170,445 166,449 161,451 155,453 155,453 149,453 143,451 139,448 138,446 137,444 137,444 z" fill-rule="nonzero"/>
<path class="pen1 brush7" d="M 138,444  L 138,444 138,442 139,440 142,436 147,434 153,432 153,432 159,432 164,434 168,437 169,439 170,441 170,441 170,443 169,445 166,448 161,451 155,452 155,452 149,452 144,450 140,448 139,446 138,444 138,444 z" fill-rule="nonzero"/>
<path class="pen1 brush20" d="M 139,444  L 139,444 140,440 143,437 147,434 153,433 153,433 159,433 164,435 167,437 169,441 169,441 168,445 165,448 161,450 155,452 155,452 149,451 144,450 141,447 139,444 139,444 z" fill-rule="nonzero"/>
<path class="pen1 brush37" d="M 140,444  L 140,444 141,440 144,437 148,435 153,433 153,433 159,433 163,435 167,437 168,441 168,441 167,444 164,448 160,450 155,451 155,451 149,451 145,449 142,447 140,444 140,444 z" fill-rule="nonzero"/>
<path class="pen1 brush38" d="M 141,443  L 141,443 142,440 144,437 148,435 153,434 153,434 158,434 163,435 166,438 167,441 167,441 166,444 164,447 160,449 155,451 155,451 150,450 145,449 142,447 141,443 141,443 z" fill-rule="nonzero"/>
<path class="pen1 brush9" d="M 166,441  L 166,441 166,444 163,447 159,449 155,450 155,450 150,450 146,449 143,446 142,443 142,443 143,440 145,438 149,436 153,434 153,434 158,435 162,436 165,438 166,441 166,441 z" fill-rule="nonzero"/>
<path class="pen1 brush39" d="M 109,87  L 109,87 108,92 105,96 101,98 97,99 97,99 92,98 88,96 85,92 84,87 84,87 85,82 88,78 92,75 97,74 97,74 101,75 105,78 108,82 109,87 109,87 z" fill-rule="nonzero"/>
<path class="pen1 brush39" d="M 126,105  L 126,105 125,109 123,111 121,113 117,114 117,114 114,113 112,111 110,109 109,105 109,105 110,102 112,99 114,98 117,97 117,97 121,98 123,99 125,102 126,105 126,105 z" fill-rule="nonzero"/>
<path class="pen1 brush39" d="M 136,120  L 136,120 135,122 133,123 133,123 130,122 129,120 129,120 130,117 133,116 133,116 135,117 136,120 136,120 z" fill-rule="nonzero"/>
<path class="pen1 brush39" d="M 90,135  L 90,135 93,139 94,144 93,149 91,153 91,153 87,156 82,157 77,156 73,154 73,154 70,150 69,145 70,140 72,136 72,136 76,133 81,132 86,133 90,135 90,135 z" fill-rule="nonzero"/>
<path class="pen1 brush39" d="M 115,136  L 115,136 117,139 118,142 117,145 115,148 115,148 113,150 110,150 106,150 104,148 104,148 102,145 101,142 101,139 103,136 103,136 106,134 109,134 112,134 115,136 115,136 z" fill-rule="nonzero"/>
<path class="pen1 brush39" d="M 133,138  L 133,138 134,140 133,143 133,143 130,144 128,143 128,143 127,141 128,138 128,138 130,137 133,138 133,138 z" fill-rule="nonzero"/>
<path class="pen1 brush39" d="M 332,87  L 332,87 333,92 336,96 339,98 344,99 344,99 349,98 353,96 356,92 357,87 357,87 356,82 353,78 349,75 344,74 344,74 339,75 336,78 333,82 332,87 332,87 z" fill-rule="nonzero"/>
<path class="pen1 brush39" d="M 315,105  L 315,105 316,109 318,111 320,113 324,114 324,114 327,113 329,111 331,109 332,105 332,105 331,102 329,99 327,98 324,97 324,97 320,98 318,99 316,102 315,105 315,105 z" fill-rule="nonzero"/>
<path class="pen1 brush39" d="M 305,120  L 305,120 306,122 308,123 308,123 311,122 312,120 312,120 311,117 308,116 308,116 306,117 305,120 305,120 z" fill-rule="nonzero"/>
<path class="pen1 brush39" d="M 351,135  L 351,135 348,139 347,144 348,149 350,153 350,153 354,156 359,157 364,156 368,154 368,154 371,150 372,145 371,140 369,136 369,136 364,133 360,132 355,133 351,135 351,135 z" fill-rule="nonzero"/>
<path class="pen1 brush39" d="M 326,136  L 326,136 324,139 323,142 324,145 326,148 326,148 328,150 331,150 335,150 337,148 337,148 339,145 340,142 340,139 338,136 338,136 335,134 332,134 329,134 326,136 326,136 z" fill-rule="nonzero"/>
<path class="pen1 brush39" d="M 308,138  L 308,138 307,140 308,143 308,143 311,144 313,143 313,143 314,141 313,138 313,138 311,137 308,138 308,138 z" fill-rule="nonzero"/>
<path class="pen1 brush27" d="M 187,425  L 187,425 179,421 170,418 158,417 152,417 146,417 139,419 132,422 126,426 119,432 113,439 107,448 107,448 112,443 117,437 125,431 130,428 136,426 143,424 150,423 158,422 167,422 177,423 187,425 187,425 z" fill-rule="nonzero"/>
<path class="pen1 brush17" d="M 261,504  L 261,504 256,497 251,491 246,486 240,481 235,478 229,476 223,474 217,474 217,474 209,475 201,477 194,481 188,485 183,489 179,493 176,498 176,498 176,498 174,503 173,508 174,513 177,517 177,517 181,519 185,519 189,518 192,515 192,515 194,512 200,507 203,505 208,502 212,500 217,500 217,500 221,500 224,501 231,505 238,511 244,520 244,520 248,523 252,525 252,525 256,524 260,522 260,522 262,518 264,513 264,513 263,508 261,504 261,504 z" fill-rule="nonzero"/>
<path class="pen1 brush31" d="M 181,504  L 181,504 180,507 182,510 182,510 183,511 184,511 186,510 187,509 187,509 189,506 196,500 200,497 205,494 211,492 217,491 217,491 221,492 226,493 230,495 234,497 242,504 250,514 250,514 251,516 252,516 254,516 255,515 255,515 256,512 256,509 256,509 247,498 242,493 237,489 232,486 227,484 222,483 217,483 217,483 210,483 203,486 197,489 192,493 184,500 181,504 181,504 z" fill-rule="nonzero"/>
<path class="pen1 brush0" d="M 243,144  L 243,144 250,143 257,142 263,140 268,138 273,135 278,131 282,127 286,122 289,117 292,111 295,105 297,98 299,82 300,64 300,64 300,58 299,52 297,47 295,41 292,36 288,31 284,26 279,22 274,17 268,14 261,10 254,7 246,5 238,3 230,2 221,2 221,2 212,2 203,3 196,5 188,7 181,10 175,13 169,17 164,22 160,27 156,32 152,38 149,45 147,52 146,60 145,68 144,77 144,90 209,90 209,90 209,61 232,61 232,61 233,93 233,93 181,94 182,166 192,166 192,166 188,169 184,172 178,179 174,188 173,192 173,196 173,196 174,205 176,213 180,220 185,226 191,231 198,234 207,236 216,237 216,237 224,236 231,234 237,231 242,226 246,220 249,213 251,204 252,195 252,195 251,191 250,187 248,183 246,179 242,175 238,172 234,169 229,166 243,166 243,166 243,144 243,144 z" fill-rule="nonzero"/>
<path class="pen1 brush40" d="M 189,102  L 241,101 240,53 201,53 201,82 152,82 152,77 152,77 154,62 155,55 157,48 159,42 162,37 166,32 170,27 175,23 180,20 185,17 191,15 198,13 205,11 221,10 221,10 229,10 236,11 244,13 250,15 263,20 273,27 281,35 287,44 289,49 291,54 292,59 292,64 292,64 291,81 289,96 285,109 282,114 279,119 275,123 271,127 267,130 262,132 257,134 251,135 238,136 235,136 235,158 190,158 189,102 z M 184,197  L 184,197 185,193 186,189 188,184 191,181 195,177 199,175 204,173 209,173 209,173 215,173 221,175 227,177 231,180 235,184 238,188 240,192 240,196 240,196 240,202 239,208 237,214 234,218 230,222 226,224 221,226 216,226 216,226 208,226 202,224 197,221 192,218 189,214 186,209 185,203 184,197 184,197 z" fill-rule="nonzero"/>
</g>
</svg>